<?xml version="1.0" encoding="UTF-8"?>
<svg width="100px" height="100px" viewBox="0 0 100 100" version="1.1" xmlns="http://www.w3.org/2000/svg" xmlns:xlink="http://www.w3.org/1999/xlink">
    <!-- Generator: Sketch 52.4 (67378) - http://www.bohemiancoding.com/sketch -->
    <title>vant</title>
    <desc>Created with Sketch.</desc>
    <g id="vant" stroke="none" stroke-width="1" fill="none" fill-rule="evenodd">
        <path d="M50,99 C22.9380473,99 1,77.0619527 1,50 C1,22.9380473 22.9380473,1 50,1 C77.0619527,1 99,22.9380473 99,50 C99,77.0619527 77.0619527,99 50,99 Z M77.1643113,66.0395633 L77.2048069,66.064 L77.2051067,66.0154161 L77.208,66.0137035 L77.2051281,66.011954 L77.4,34.4374094 L66.1357085,27.472 L50.2,36.4826885 L62.0115953,43.3822319 L62.0302944,56.7995648 L50.2,63.6133921 L50.2,82 L77.1643113,66.0395633 Z M38.35234,43.2104372 L50.2,36.3866079 L50.2,18 L23.2140456,34.0741847 L24.6467166,34.9399081 L23.1951931,34.064 L23,65.6905906 L34.2642915,72.656 L50.2,63.6453115 L38.3884047,56.7457681 L38.3695556,43.2208258 L38.35234,43.2104372 Z" id="Combined-Shape" fill="#FFFFFF"></path>
    </g>
</svg>